<svg width="73" height="62" viewBox="0 0 73 62" fill="none" xmlns="http://www.w3.org/2000/svg">
<rect x="0.997742" width="72.0023" height="61.7143" rx="3" fill="white"/>
<path d="M15.2482 4.82129C11.7273 4.82129 8.87299 7.26773 8.87299 10.2856C8.87299 13.3034 11.7273 15.7499 15.2482 15.7499C18.7691 15.7499 21.6234 13.3034 21.6234 10.2856C21.6234 7.26773 18.7691 4.82129 15.2482 4.82129Z" fill="black"/>
<path d="M9.248 20.2499C9.04088 20.2499 8.87299 20.3938 8.87299 20.5713V53.9999C8.87299 54.1774 9.04088 54.3213 9.248 54.3213H21.2484C21.4555 54.3213 21.6234 54.1774 21.6234 53.9999V20.5713C21.6234 20.3938 21.4555 20.2499 21.2484 20.2499H9.248Z" fill="black"/>
<path d="M28.7486 20.2499C28.5415 20.2499 28.3736 20.3938 28.3736 20.5713V53.9999C28.3736 54.1774 28.5415 54.3213 28.7486 54.3213H40.749C40.9561 54.3213 41.124 54.1774 41.124 53.9999V35.9999C41.124 34.7211 41.7167 33.4948 42.7716 32.5906C43.8265 31.6864 45.2573 31.1784 46.7492 31.1784C48.2411 31.1784 49.6719 31.6864 50.7268 32.5906C51.7817 33.4948 52.3744 34.7211 52.3744 35.9999V53.9999C52.3744 54.1774 52.5423 54.3213 52.7494 54.3213H64.7497C64.9569 54.3213 65.1248 54.1774 65.1248 53.9999V31.8348C65.1248 25.5946 58.7927 20.7127 51.5489 21.2771C49.3148 21.4512 47.1061 21.9272 45.0435 22.6849L41.124 24.1246V20.5713C41.124 20.3938 40.9561 20.2499 40.749 20.2499H28.7486Z" fill="black"/>
</svg>
