<svg width="70" height="59" viewBox="0 0 70 59" fill="none" xmlns="http://www.w3.org/2000/svg">
<path fill-rule="evenodd" clip-rule="evenodd" d="M34.9946 0.928711C15.9328 0.928711 0.49353 14.1619 0.49353 30.5001C0.49353 43.5855 10.3695 54.6378 24.0837 58.556C25.8087 58.8148 26.4556 57.9276 26.4556 57.1514C26.4556 56.4491 26.4125 54.1203 26.4125 51.6437C17.7441 53.0114 15.5015 49.8325 14.8115 48.1691C14.4233 47.3189 12.7414 44.6944 11.2751 43.9921C10.0676 43.4376 8.34253 42.07 11.232 42.033C13.949 41.996 15.8896 44.1769 16.5365 45.0641C19.6416 49.5367 24.6012 48.28 26.585 47.5037C26.8869 45.5816 27.7925 44.2878 28.7844 43.5485C21.1079 42.8092 13.0864 40.2587 13.0864 28.9476C13.0864 25.7317 14.4233 23.0703 16.6228 21.0003C16.2778 20.261 15.0702 17.23 16.9678 13.1639C16.9678 13.1639 19.8573 12.3876 26.4556 16.195C29.2157 15.5296 32.1483 15.1969 35.0809 15.1969C38.0135 15.1969 40.9461 15.5296 43.7062 16.195C50.3045 12.3507 53.1939 13.1639 53.1939 13.1639C55.0915 17.23 53.884 20.261 53.539 21.0003C55.7384 23.0703 57.0753 25.6948 57.0753 28.9476C57.0753 40.2957 49.0107 42.8092 41.3342 43.5485C42.5849 44.4726 43.663 46.2469 43.663 49.0192C43.663 52.9744 43.6199 56.1534 43.6199 57.1514C43.6199 57.9276 44.2668 58.8517 45.9918 58.556C59.6198 54.6378 69.4957 43.5485 69.4957 30.5001C69.4957 14.1619 54.0565 0.928711 34.9946 0.928711Z" fill="white"/>
</svg>
